<svg width="716" height="569" viewBox="0 0 716 569" fill="none" xmlns="http://www.w3.org/2000/svg">
<g clip-path="url(#clip0)">
<path d="M58.5801 244.331C58.2867 243.34 57.9932 242.349 57.8465 241.357C55.2789 223.594 43.1744 123.625 110.226 89.9984C143.238 73.4745 180.652 46.2101 301.697 96.608C444.53 156.094 537.919 55.2983 559.927 55.2983C581.935 55.2983 631.82 18.9457 690.509 89.9984C749.197 161.051 705.181 246.975 705.181 246.975C705.181 246.975 677.304 327.942 686.107 369.252C694.91 410.562 705.181 443.609 702.246 456.829C699.312 470.048 697.845 559.277 649.427 579.105C601.009 598.934 617.148 595.629 504.173 589.02C391.197 582.41 332.509 600.586 309.033 610.501C285.558 620.415 250.345 617.11 187.255 569.191C124.165 521.272 109.492 536.143 77.2137 514.662C44.9351 493.181 -37.0822 374.374 31.7301 288.285C58.3601 255.072 59.2404 246.397 58.5801 244.331Z" fill="#F8F8FF"/>
<path d="M149.493 166.125C161.689 166.125 171.575 154.991 171.575 141.257C171.575 127.522 161.689 116.388 149.493 116.388C137.298 116.388 127.412 127.522 127.412 141.257C127.412 154.991 137.298 166.125 149.493 166.125Z" fill="white"/>
<path d="M173.409 158.111C181.715 158.111 188.448 150.528 188.448 141.174C188.448 131.82 181.715 124.237 173.409 124.237C165.103 124.237 158.37 131.82 158.37 141.174C158.37 150.528 165.103 158.111 173.409 158.111Z" fill="white"/>
<path d="M124.331 154.476C131.016 154.476 136.435 148.372 136.435 140.843C136.435 133.315 131.016 127.211 124.331 127.211C117.646 127.211 112.226 133.315 112.226 140.843C112.226 148.372 117.646 154.476 124.331 154.476Z" fill="white"/>
<path d="M582.321 126.716C594.517 126.716 604.403 115.582 604.403 101.847C604.403 88.1126 594.517 76.9787 582.321 76.9787C570.126 76.9787 560.24 88.1126 560.24 101.847C560.24 115.582 570.126 126.716 582.321 126.716Z" fill="white"/>
<path d="M606.31 118.701C614.616 118.701 621.349 111.119 621.349 101.764C621.349 92.4104 614.616 84.8275 606.31 84.8275C598.005 84.8275 591.271 92.4104 591.271 101.764C591.271 111.119 598.005 118.701 606.31 118.701Z" fill="white"/>
<path d="M557.159 115.066C563.844 115.066 569.263 108.963 569.263 101.434C569.263 93.9051 563.844 87.8018 557.159 87.8018C550.474 87.8018 545.054 93.9051 545.054 101.434C545.054 108.963 550.474 115.066 557.159 115.066Z" fill="white"/>
<path d="M342.872 213.383C355.068 213.383 364.954 202.249 364.954 188.515C364.954 174.78 355.068 163.646 342.872 163.646C330.677 163.646 320.791 174.78 320.791 188.515C320.791 202.249 330.677 213.383 342.872 213.383Z" fill="white"/>
<path d="M380.673 194.862C383.852 186.22 380.208 176.312 372.534 172.732C364.861 169.152 356.063 173.256 352.885 181.898C349.706 190.54 353.35 200.448 361.024 204.028C368.697 207.608 377.495 203.504 380.673 194.862Z" fill="white"/>
<path d="M317.709 201.651C324.395 201.651 329.814 195.548 329.814 188.019C329.814 180.49 324.395 174.387 317.709 174.387C311.024 174.387 305.605 180.49 305.605 188.019C305.605 195.548 311.024 201.651 317.709 201.651Z" fill="white"/>
<path d="M17.1966 400.751C17.1966 400.751 31.2115 377.663 32.6896 374.364C34.1678 371.064 33.4778 357.842 33.4778 357.842L28.3426 357.825C28.3426 357.825 32.7907 343.794 45.2619 343.836C57.7331 343.877 61.3793 350.499 62.8356 353.808C64.2919 357.118 63.5528 358.768 63.5528 358.768L59.1512 358.753L59.1075 371.972L80.2509 411.7L89.0541 411.729L88.8412 476.172C88.8412 476.172 36.8564 445.43 17.1966 400.751Z" fill="#BAC6F2"/>
<path d="M66.1541 459.573L76.4245 459.607L76.4791 443.083C76.4791 443.083 71.3739 433.978 66.2087 443.049L66.1541 459.573Z" fill="white"/>
<path d="M69.4929 426.04C73.0583 426.052 75.9593 422.806 75.9726 418.791C75.9859 414.775 73.1063 411.511 69.5409 411.499C65.9755 411.487 63.0745 414.733 63.0612 418.748C63.0479 422.764 65.9275 426.028 69.4929 426.04Z" fill="#E9EDFA"/>
<path d="M21.4217 409.77C24.3638 407.467 28.3962 408.223 30.4393 411.535C32.4828 414.764 31.8078 419.223 29.0122 421.61" fill="#E9EDFA"/>
<path d="M46.4204 392.833C49.9858 392.845 52.8869 389.599 52.9002 385.584C52.9135 381.569 50.0339 378.304 46.4685 378.292C42.9031 378.281 40.002 381.526 39.9888 385.541C39.9755 389.557 42.8551 392.821 46.4204 392.833Z" fill="#E9EDFA"/>
<path d="M35.5704 412.791C35.5767 410.891 36.243 409.076 37.2746 407.675C39.3383 404.79 42.4252 403.065 45.7269 402.911C52.55 402.768 55.5364 409.222 55.9679 411.867C56.615 415.835 56.4017 435.994 56.4017 435.994L40.4094 435.858L35.4405 429.893L35.5704 412.791Z" fill="white"/>
<path d="M87.3725 386.163L89.0598 476.136C89.0598 476.136 119.284 488.859 132.049 491.833C144.814 494.808 174.452 513.893 174.452 513.893L173.938 386.494L87.3725 385.833" fill="#E9EDFA"/>
<path d="M86.7856 386.163L174.011 386.576L173.645 363.112H147.822C147.822 363.112 144.594 349.067 132.563 349.067C117.817 349.067 115.323 363.856 115.323 363.856L86.7122 363.526L86.7856 386.163Z" fill="#BAC6F2"/>
<path d="M111.435 399.465H96.029V418.302H111.435V399.465Z" fill="#BAC6F2"/>
<path d="M139.312 399.217H123.906V418.054H139.312V399.217Z" fill="#BAC6F2"/>
<path d="M166.822 399.465H151.416V418.302H166.822V399.465Z" fill="white"/>
<path d="M167.042 434.909H151.636V453.746H167.042V434.909Z" fill="#BAC6F2"/>
<path d="M167.262 476.136H151.857V494.973H167.262V476.136Z" fill="#BAC6F2"/>
<path d="M138.652 434.413H123.246V453.25H138.652V434.413Z" fill="#BAC6F2"/>
<path d="M138.652 434.413H123.246V453.25H138.652V434.413Z" fill="white"/>
<path d="M111.508 435.239H96.1024V454.076H111.508V435.239Z" fill="#BAC6F2"/>
<path d="M96.4692 478.945L96.3225 473.409L111.288 473.74L111.361 484.811C111.361 484.893 100.284 480.762 96.4692 478.945Z" fill="#BAC6F2"/>
<path d="M124.126 489.355L123.906 475.31L139.092 475.64L138.725 493.982L124.126 489.355Z" fill="#BAC6F2"/>
<path d="M131.756 376.745C136.456 376.745 140.266 372.454 140.266 367.161C140.266 361.868 136.456 357.577 131.756 357.577C127.056 357.577 123.246 361.868 123.246 367.161C123.246 372.454 127.056 376.745 131.756 376.745Z" fill="white"/>
<path d="M173.718 449.284L174.452 513.975C174.452 513.975 220.155 548.18 223.016 550.658C225.878 553.137 249.793 566.191 260.65 566.935L262.631 436.478L256.175 436.231L224.777 392.36L213.186 391.699L173.718 449.284Z" fill="#BAC6F2"/>
<path d="M173.718 449.284L213.259 393.351L217.588 393.516L222.576 393.847L225.364 394.177L256.249 436.231L262.631 436.478V434L256.469 433.669L226.905 392.938L227.051 377.24L212.746 376.414L212.232 392.525L174.232 413.097L173.718 449.284Z" fill="#E9EDFA"/>
<path d="M205.997 437.139H198.807V446.641H205.997V437.139Z" fill="white"/>
<path d="M237.689 437.222H230.499V446.723H237.689V437.222Z" fill="white"/>
<path d="M226.024 437.222H218.835V446.723H226.024V437.222Z" fill="white"/>
<path d="M216.487 437.139H209.298V446.641H216.487V437.139Z" fill="white"/>
<path d="M205.997 451.598H198.807V461.099H205.997V451.598Z" fill="white"/>
<path d="M237.689 451.68H230.499V461.182H237.689V451.68Z" fill="white"/>
<path d="M226.024 451.68H218.835V461.182H226.024V451.68Z" fill="white"/>
<path d="M216.487 451.598H209.298V461.099H216.487V451.598Z" fill="white"/>
<path d="M188.977 494.395H181.788V503.896H188.977V494.395Z" fill="white"/>
<path d="M198.294 483.489H191.105V492.99H198.294V483.489Z" fill="white"/>
<path d="M188.757 483.406H181.568V492.907H188.757V483.406Z" fill="white"/>
<path d="M198.367 494.477H191.178V503.978H198.367V494.477Z" fill="white"/>
<path d="M217.148 494.642H209.958V504.144H217.148V494.642Z" fill="white"/>
<path d="M226.464 483.737H219.275V493.238H226.464V483.737Z" fill="white"/>
<path d="M216.928 483.654H209.738V493.155H216.928V483.654Z" fill="white"/>
<path d="M226.538 494.725H219.348V504.226H226.538V494.725Z" fill="white"/>
<path d="M244.364 494.89H237.175V504.392H244.364V494.89Z" fill="white"/>
<path d="M253.681 483.985H246.492V493.486H253.681V483.985Z" fill="white"/>
<path d="M244.144 483.985H236.955V493.486H244.144V483.985Z" fill="white"/>
<path d="M253.828 495.056H246.639V504.557H253.828V495.056Z" fill="white"/>
<path d="M243.998 541.157H236.808V554.624H243.998V541.157Z" fill="white"/>
<path d="M253.314 530.251H246.125V539.753H253.314V530.251Z" fill="white"/>
<path d="M243.777 530.169H236.588V539.67H243.777V530.169Z" fill="white"/>
<path d="M225.07 530.004H217.881V539.505H225.07V530.004Z" fill="white"/>
<path d="M225.144 552.063L217.955 546.775L217.881 541.57H225.07L225.144 552.063Z" fill="white"/>
<path d="M215.534 529.921H208.344V539.422H215.534V529.921Z" fill="white"/>
<path d="M215.46 544.793L213.626 543.388L210.618 541.157H215.46V544.793Z" fill="white"/>
<path d="M253.461 541.24H246.272V554.707H253.461V541.24Z" fill="white"/>
<path d="M299.898 350.306H313.397L313.177 342.871L299.678 342.705L299.898 350.306Z" fill="#BAC6F2"/>
<path d="M262.044 420.12L260.724 566.934C260.724 566.934 283.979 570.983 304.96 565.034C325.941 559.086 350.15 552.641 350.15 552.641L350.957 421.524L336.872 413.758L313.984 368.069L313.397 350.224H299.825L299.385 368.069L275.323 412.849L262.044 420.12Z" fill="#E9EDFA"/>
<path d="M305.767 432.678H296.891V445.153H305.767V432.678Z" fill="#BAC6F2"/>
<path d="M318.385 432.926H308.922V445.153H318.385V432.926Z" fill="#BAC6F2"/>
<path d="M305.547 447.467H296.67V459.942H305.547V447.467Z" fill="#BAC6F2"/>
<path d="M318.165 447.715H308.702V459.942H318.165V447.715Z" fill="#BAC6F2"/>
<path d="M305.914 477.21H297.037V489.685H305.914V477.21Z" fill="#BAC6F2"/>
<path d="M285.006 477.127H276.129V489.603H285.006V477.127Z" fill="#BAC6F2"/>
<path d="M337.532 477.623H328.656V490.098H337.532V477.623Z" fill="#BAC6F2"/>
<path d="M337.826 532.565H328.949V545.04H337.826V532.565Z" fill="#BAC6F2"/>
<path d="M285.079 532.895H276.203V545.371H285.079V532.895Z" fill="#BAC6F2"/>
<path d="M318.605 477.375H309.142V489.603H318.605V477.375Z" fill="#BAC6F2"/>
<path d="M305.694 491.999H296.817V504.474H305.694V491.999Z" fill="#BAC6F2"/>
<path d="M318.385 492.164H308.922V504.392H318.385V492.164Z" fill="#BAC6F2"/>
<path d="M305.767 531.16H296.891V543.636H305.767V531.16Z" fill="#BAC6F2"/>
<path d="M318.385 531.408H308.922V543.636H318.385V531.408Z" fill="#BAC6F2"/>
<path d="M305.547 545.949H296.67V558.425H305.547V545.949Z" fill="#BAC6F2"/>
<path d="M318.238 546.197H308.775V558.425H318.238V546.197Z" fill="#BAC6F2"/>
<path d="M281.045 453.581C284.489 453.581 287.28 450.437 287.28 446.558C287.28 442.679 284.489 439.535 281.045 439.535C277.601 439.535 274.809 442.679 274.809 446.558C274.809 450.437 277.601 453.581 281.045 453.581Z" fill="#BAC6F2"/>
<path d="M331.443 455.15C334.887 455.15 337.679 452.006 337.679 448.128C337.679 444.249 334.887 441.105 331.443 441.105C328 441.105 325.208 444.249 325.208 448.128C325.208 452.006 328 455.15 331.443 455.15Z" fill="#BAC6F2"/>
<path d="M262.044 420.12H275.616L275.396 412.684L261.824 412.519L262.044 420.12Z" fill="#BAC6F2"/>
<path d="M337.386 421.524H350.957L350.737 414.089L337.166 413.923L337.386 421.524Z" fill="#BAC6F2"/>
<path d="M307.161 416.567C313.076 416.567 317.872 411.167 317.872 404.505C317.872 397.843 313.076 392.442 307.161 392.442C301.246 392.442 296.45 397.843 296.45 404.505C296.45 411.167 301.246 416.567 307.161 416.567Z" fill="#BAC6F2"/>
<path d="M345.382 422.103L346.189 485.472C346.189 485.472 348.243 553.385 348.463 553.137C353.305 547.519 427.766 541.818 436.349 541.57L434.368 409.379L427.913 409.131L396.441 365.178L384.85 364.517L345.382 422.103Z" fill="#BAC6F2"/>
<path d="M345.382 422.103L384.85 366.252L389.252 366.417L394.24 366.748L396.954 367.078L427.839 409.049L434.295 409.379V406.818L428.133 406.57L398.495 365.839L398.715 350.059L384.41 349.232L383.823 365.343L345.382 414.006V422.103Z" fill="#E9EDFA"/>
<path d="M377.661 410.04H370.471V419.541H377.661V410.04Z" fill="white"/>
<path d="M409.352 410.123H402.163V419.624H409.352V410.123Z" fill="white"/>
<path d="M397.688 410.04H390.499V419.541H397.688V410.04Z" fill="white"/>
<path d="M388.151 409.958H380.962V419.459H388.151V409.958Z" fill="white"/>
<path d="M377.661 424.499H370.471V434H377.661V424.499Z" fill="white"/>
<path d="M409.352 424.581H402.163V434.082H409.352V424.581Z" fill="white"/>
<path d="M397.688 424.499H390.499V434H397.688V424.499Z" fill="white"/>
<path d="M388.151 424.499H380.962V434H388.151V424.499Z" fill="white"/>
<path d="M360.788 474.07H353.598V483.572H360.788V474.07Z" fill="white"/>
<path d="M370.104 463.165H362.915V472.666H370.104V463.165Z" fill="white"/>
<path d="M360.568 463.082H353.378V472.583H360.568V463.082Z" fill="white"/>
<path d="M370.178 474.153H362.988V483.654H370.178V474.153Z" fill="white"/>
<path d="M388.885 474.236H381.695V483.737H388.885V474.236Z" fill="white"/>
<path d="M398.275 463.412H391.086V472.914H398.275V463.412Z" fill="white"/>
<path d="M388.665 463.33H381.475V472.831H388.665V463.33Z" fill="white"/>
<path d="M398.348 474.401H391.159V483.902H398.348V474.401Z" fill="white"/>
<path d="M416.175 474.566H408.986V484.067H416.175V474.566Z" fill="white"/>
<path d="M425.492 463.66H418.302V473.162H425.492V463.66Z" fill="white"/>
<path d="M415.955 463.66H408.766V473.162H415.955V463.66Z" fill="white"/>
<path d="M425.565 474.649H418.376V484.15H425.565V474.649Z" fill="white"/>
<path d="M360.934 515.545H353.745V525.046H360.934V515.545Z" fill="white"/>
<path d="M370.251 504.639H363.062V514.141H370.251V504.639Z" fill="white"/>
<path d="M360.714 504.639H353.525V514.141H360.714V504.639Z" fill="white"/>
<path d="M370.398 515.628H363.209V525.129H370.398V515.628Z" fill="white"/>
<path d="M389.105 515.793H381.916V525.294H389.105V515.793Z" fill="white"/>
<path d="M398.422 504.887H391.232V514.389H398.422V504.887Z" fill="white"/>
<path d="M388.885 504.805H381.695V514.306H388.885V504.805Z" fill="white"/>
<path d="M398.568 515.876H391.379V525.377H398.568V515.876Z" fill="white"/>
<path d="M416.395 516.124H409.206V525.625H416.395V516.124Z" fill="white"/>
<path d="M425.712 505.218H418.523V514.719H425.712V505.218Z" fill="white"/>
<path d="M416.175 505.135H408.986V514.636H416.175V505.135Z" fill="white"/>
<path d="M425.785 516.206H418.596V525.707H425.785V516.206Z" fill="white"/>
<path d="M442.658 391.947C442.658 391.947 461.659 357.907 463.126 354.603C464.593 351.298 463.859 338.079 463.859 338.079H458.724C458.724 338.079 463.126 324.033 475.597 324.033C488.068 324.033 491.737 330.643 493.204 333.948C494.671 337.253 493.937 338.905 493.937 338.905H489.536V352.124L510.81 391.781H519.614L522.475 544.545C522.475 544.545 438.77 540.166 437.009 541.488C436.423 541.901 436.496 537.605 436.423 536.861C436.056 533.639 432.901 416.815 434.515 392.112C434.515 392.112 442.732 391.947 442.658 391.947Z" fill="#E9EDFA"/>
<path d="M496.505 440.114H506.775V423.59C506.775 423.59 501.64 414.502 496.505 423.59V440.114Z" fill="white"/>
<path d="M447.207 441.436H457.477V424.912C457.477 424.912 452.342 415.824 447.207 424.912V441.436Z" fill="white"/>
<path d="M447.207 484.15H457.477V467.626C457.477 467.626 452.342 458.538 447.207 467.626V484.15Z" fill="white"/>
<path d="M471.709 484.645H481.979V468.122C481.979 468.122 476.844 459.034 471.709 468.122V484.645Z" fill="white"/>
<path d="M496.211 485.141H506.482V468.617C506.482 468.617 501.347 459.529 496.211 468.617V485.141Z" fill="white"/>
<path d="M447.793 524.964H458.064V508.44C458.064 508.44 452.929 499.352 447.793 508.44V524.964Z" fill="white"/>
<path d="M472.369 525.459H482.64V508.936C482.64 508.936 477.505 499.848 472.369 508.936V525.459Z" fill="white"/>
<path d="M496.872 525.955H507.142V509.431C507.142 509.431 502.007 500.343 496.872 509.431V525.955Z" fill="white"/>
<path d="M499.733 406.487C503.298 406.487 506.189 403.232 506.189 399.217C506.189 395.202 503.298 391.947 499.733 391.947C496.167 391.947 493.277 395.202 493.277 399.217C493.277 403.232 496.167 406.487 499.733 406.487Z" fill="#E9EDFA"/>
<path d="M453.369 405.414C456.934 405.414 459.825 402.158 459.825 398.143C459.825 394.128 456.934 390.873 453.369 390.873C449.803 390.873 446.913 394.128 446.913 398.143C446.913 402.158 449.803 405.414 453.369 405.414Z" fill="#E9EDFA"/>
<path d="M477.064 441.436C480.63 441.436 483.52 438.18 483.52 434.165C483.52 430.15 480.63 426.895 477.064 426.895C473.499 426.895 470.609 430.15 470.609 434.165C470.609 438.18 473.499 441.436 477.064 441.436Z" fill="#E9EDFA"/>
<path d="M476.551 373.44C480.116 373.44 483.007 370.185 483.007 366.169C483.007 362.154 480.116 358.899 476.551 358.899C472.985 358.899 470.095 362.154 470.095 366.169C470.095 370.185 472.985 373.44 476.551 373.44Z" fill="#E9EDFA"/>
<path d="M465.767 393.351C465.767 391.451 466.427 389.633 467.454 388.229C469.508 385.337 472.589 383.602 475.817 383.437C482.64 383.272 485.648 389.716 486.014 392.36C486.675 396.325 486.528 416.484 486.528 416.484H465.473L465.62 410.536L465.767 393.351Z" fill="white"/>
<path d="M519.98 420.698L522.181 544.793C522.181 544.793 546.317 545.04 561.136 547.106C574.047 548.923 605.152 547.271 605.152 547.271L606.619 421.111L520.054 420.45" fill="#BAC6F2"/>
<path d="M519.393 420.698L606.619 421.111L606.253 397.647H580.43C580.43 397.647 577.202 383.602 565.171 383.602C550.425 383.602 547.931 398.391 547.931 398.391L519.32 398.06L519.393 420.698Z" fill="#BAC6F2"/>
<path d="M543.969 434H528.564V452.837H543.969V434Z" fill="white"/>
<path d="M571.846 433.752H556.441V452.589H571.846V433.752Z" fill="white"/>
<path d="M599.357 434H583.951V452.837H599.357V434Z" fill="white"/>
<path d="M599.577 469.444H584.171V488.281H599.577V469.444Z" fill="white"/>
<path d="M599.797 510.671H584.391V529.508H599.797V510.671Z" fill="white"/>
<path d="M571.846 509.927H556.441V528.764H571.846V509.927Z" fill="white"/>
<path d="M543.969 509.514H528.564V528.351H543.969V509.514Z" fill="white"/>
<path d="M571.259 468.865H555.854V487.702H571.259V468.865Z" fill="white"/>
<path d="M571.259 468.865H555.854V487.702H571.259V468.865Z" fill="white"/>
<path d="M544.116 469.691H528.71V488.529H544.116V469.691Z" fill="white"/>
<path d="M564.29 411.279C568.99 411.279 572.8 406.989 572.8 401.696C572.8 396.403 568.99 392.112 564.29 392.112C559.59 392.112 555.78 396.403 555.78 401.696C555.78 406.989 559.59 411.279 564.29 411.279Z" fill="white"/>
<path d="M644.033 314.367H657.532L657.385 306.931L643.813 306.683L644.033 314.367Z" fill="white"/>
<path d="M606.179 384.18L604.565 547.436C604.565 547.436 633.543 539.174 651.956 528.93C669.343 519.181 677.632 497.782 679.613 493.651C679.833 493.238 679.98 492.742 680.127 492.247L690.177 458.538C690.47 457.629 690.691 456.638 690.764 455.729L695.386 422.516L697.586 407.314C697.733 406.405 697.733 405.414 697.586 404.505L695.166 386.411C695.092 385.998 694.872 385.667 694.579 385.42L681.007 377.901L658.118 332.13L657.532 314.284H643.96L643.52 332.13L619.457 376.91L606.179 384.18Z" fill="#E9EDFA"/>
<path d="M649.902 396.738H641.025V409.214H649.902V396.738Z" fill="white"/>
<path d="M662.52 396.986H653.057V409.214H662.52V396.986Z" fill="white"/>
<path d="M649.682 411.527H640.805V424.003H649.682V411.527Z" fill="white"/>
<path d="M662.3 411.775H652.836V424.003H662.3V411.775Z" fill="white"/>
<path d="M650.049 441.188H641.172V453.663H650.049V441.188Z" fill="white"/>
<path d="M629.141 441.188H620.264V453.663H629.141V441.188Z" fill="white"/>
<path d="M681.741 441.683H672.864V454.159H681.741V441.683Z" fill="white"/>
<path d="M675.725 502.244L673.011 506.622L673.377 495.634L678.733 495.386L675.725 502.244Z" fill="white"/>
<path d="M629.214 496.956H620.338V509.431H629.214V496.956Z" fill="white"/>
<path d="M662.74 441.436H653.277V453.663H662.74V441.436Z" fill="white"/>
<path d="M649.902 456.059H641.025V468.535H649.902V456.059Z" fill="white"/>
<path d="M662.52 456.224H653.057V468.452H662.52V456.224Z" fill="white"/>
<path d="M649.902 495.221H641.025V507.696H649.902V495.221Z" fill="white"/>
<path d="M662.52 495.469H653.057V507.696H662.52V495.469Z" fill="white"/>
<path d="M649.755 510.01H640.879V522.485H649.755V510.01Z" fill="white"/>
<path d="M661.64 521.576L660.613 522.485H652.91V510.258H662.373V520.833L661.64 521.576Z" fill="white"/>
<path d="M625.18 417.641C628.623 417.641 631.415 414.497 631.415 410.619C631.415 406.74 628.623 403.596 625.18 403.596C621.736 403.596 618.944 406.74 618.944 410.619C618.944 414.497 621.736 417.641 625.18 417.641Z" fill="white"/>
<path d="M675.578 419.211C679.022 419.211 681.814 416.067 681.814 412.188C681.814 408.31 679.022 405.166 675.578 405.166C672.134 405.166 669.343 408.31 669.343 412.188C669.343 416.067 672.134 419.211 675.578 419.211Z" fill="white"/>
<path d="M606.179 384.18H619.751L619.531 376.745L605.959 376.579L606.179 384.18Z" fill="white"/>
<path d="M681.594 385.585H695.092L694.212 380.876L693.625 378.066L681.374 377.984L681.594 385.585Z" fill="white"/>
<path d="M651.296 380.628C657.211 380.628 662.007 375.227 662.007 368.565C662.007 361.903 657.211 356.503 651.296 356.503C645.381 356.503 640.585 361.903 640.585 368.565C640.585 375.227 645.381 380.628 651.296 380.628Z" fill="white"/>
<path d="M62.6649 256.99L171.165 226.917C171.165 226.917 175.2 225.512 174.026 220.225L171.752 209.732L54.8887 242.119L57.6764 254.842C58.6301 256.743 60.6842 257.651 62.6649 256.99Z" fill="#BAC5F4"/>
<path d="M37.5022 162.722L55.6223 246.167L172.266 212.541L153.779 127.939C153.779 127.939 153.412 122.899 148.864 124.221L40.2899 154.294C40.3633 154.294 35.4481 155.616 37.5022 162.722Z" fill="#BAC5F4"/>
<path d="M112.404 266.987L107.342 243.771L124.581 239.806L129.056 260.213L112.404 266.987Z" fill="#BAC5F4"/>
<path d="M84.7465 272.192L155.76 252.446L156.713 256.495L85.6269 276.158L84.7465 272.192Z" fill="#BAC5F4"/>
<path d="M113.431 231.957C115.338 231.461 117.245 232.7 117.685 234.848C118.126 236.996 117.025 239.145 115.118 239.64C113.21 240.136 111.303 238.897 110.863 236.749C110.423 234.601 111.597 232.452 113.431 231.957Z" fill="white"/>
<path d="M150.035 128.164L40.3356 158.56L58.0367 239.586L167.736 209.189L150.035 128.164Z" fill="#F8F8FF"/>
<path d="M46.7457 161.152C47.6994 160.904 48.6531 161.565 48.8732 162.639C49.0933 163.713 48.5064 164.787 47.5527 165.035C46.599 165.283 45.6453 164.622 45.4252 163.548C45.2785 162.556 45.8654 161.4 46.7457 161.152Z" fill="#FA5F5D"/>
<path d="M52.6145 159.582C53.5682 159.334 54.5219 159.995 54.742 161.069C54.962 162.143 54.3752 163.217 53.4215 163.465C52.4678 163.713 51.5141 163.052 51.294 161.978C51.0739 160.904 51.6608 159.83 52.6145 159.582Z" fill="#FDBC4E"/>
<path d="M58.7035 157.847C59.6572 157.599 60.6109 158.26 60.831 159.334C61.051 160.408 60.4642 161.482 59.5105 161.73C58.5568 161.978 57.6031 161.317 57.383 160.243C57.2363 159.252 57.8232 158.095 58.7035 157.847Z" fill="#37CD58"/>
<path d="M85.7002 165.365C85.8469 166.44 85.26 167.431 84.3063 167.596L63.3252 173.38C62.2248 173.71 60.9777 173.132 60.8309 172.223L60.024 168.588C59.8039 167.596 60.6109 166.44 61.7846 166.109L82.6924 160.326C83.5727 159.995 84.5998 160.574 84.9666 161.565V161.648L85.7002 165.365Z" fill="url(#paint0_linear)"/>
<path d="M141.454 175.28C141.601 176.436 140.941 177.511 139.987 177.758L68.5338 197.587C67.4334 197.918 66.1862 197.257 65.9662 196.265L62.0781 178.419C61.858 177.345 62.7383 176.189 63.7653 175.941L135.219 156.112C136.172 155.782 137.273 156.36 137.566 157.517L141.454 175.28Z" fill="url(#paint1_linear)"/>
<path d="M92.8162 204.94C93.0363 206.014 92.4494 207.088 91.4957 207.336L71.8351 212.789C70.6613 213.12 69.4875 212.459 69.2674 211.467L67.14 201.718C66.9199 200.644 67.8002 199.487 68.8273 199.239L88.3412 193.869C89.2215 193.539 90.2486 194.117 90.6154 195.191V195.274L92.8162 204.94Z" fill="url(#paint2_linear)"/>
<path d="M118.419 197.835C118.639 198.909 118.052 199.983 117.099 200.231L97.4379 205.684C96.2641 206.014 95.0903 205.353 94.8703 204.362L92.7428 194.613C92.5227 193.539 93.4031 192.382 94.4301 192.134L113.944 186.764C114.824 186.433 115.851 187.012 116.218 188.086V188.168L118.419 197.835Z" fill="url(#paint3_linear)"/>
<path d="M144.829 190.482C144.976 191.638 144.315 192.713 143.362 192.96L123.848 198.331C122.821 198.744 121.72 198.083 121.353 197.009L119.226 187.26C119.006 186.02 119.813 184.946 120.84 184.781L140.354 179.411C141.308 179.08 142.481 179.659 142.775 180.815L144.829 190.482Z" fill="url(#paint4_linear)"/>
<path d="M119.666 203.37C119.593 203.784 119.373 204.114 119.006 204.279C118.933 204.279 118.933 204.279 118.786 204.031L97.2912 209.98C96.9244 210.393 96.1908 210.31 96.1174 209.897L96.0441 209.567C95.9707 209.154 96.4842 208.575 96.9244 208.41L118.419 202.462C118.786 202.462 119.079 202.709 119.226 203.04C119.226 203.123 119.226 203.123 119.446 203.123L119.666 203.37Z" fill="#E9EDFB"/>
<path d="M120.326 206.51C120.253 206.923 120.033 207.336 119.74 207.501C119.74 207.501 119.666 207.501 119.593 207.171L98.0248 213.119C97.658 213.533 96.9243 213.45 96.851 212.954L96.7776 212.624C96.7043 212.211 97.2912 211.715 97.658 211.55L119.153 205.601C119.519 205.601 119.96 205.766 120.18 206.18L120.326 206.51Z" fill="#E9EDFB"/>
<path d="M121.06 209.65C120.987 210.145 120.767 210.558 120.4 210.806C120.4 210.641 120.326 210.558 120.326 210.393L98.7584 216.342C98.4649 216.672 98.0248 216.755 97.7313 216.342C97.658 216.259 97.658 216.176 97.5846 216.094L97.5112 215.763C97.4379 215.35 98.0248 214.937 98.3916 214.689L119.886 208.741C120.253 208.741 120.693 208.906 120.913 209.319L121.06 209.65Z" fill="#E9EDFB"/>
<path d="M121.72 212.789C121.647 213.367 121.427 213.863 121.133 214.359L99.5653 220.307C99.0518 220.06 98.3182 219.729 98.1714 219.233L98.0981 218.903C98.0247 218.49 98.5382 217.829 98.9784 217.911L120.473 211.963C120.767 211.798 121.06 211.963 121.207 212.293C121.207 212.376 121.207 212.459 121.28 212.541C121.28 212.541 121.28 212.541 121.5 212.541L121.72 212.789Z" fill="#E9EDFB"/>
<path d="M110.496 219.316C110.569 219.729 110.423 219.977 109.983 220.06L100.079 222.786C99.6387 222.869 99.0518 222.869 98.9785 222.538L98.9051 222.208C98.8318 221.795 99.3453 221.299 99.7121 221.216L109.616 218.49C109.983 218.407 110.349 218.655 110.423 219.068L110.496 219.316Z" fill="#E9EDFB"/>
<path d="M146.003 196.017C145.636 196.513 145.783 196.843 145.342 196.596L123.848 202.544C123.554 202.957 123.188 202.792 123.041 202.462C123.041 202.462 123.041 202.462 123.261 202.296L123.188 201.966C122.894 201.635 123.114 201.14 123.481 200.974L144.976 195.026C145.416 195.108 145.416 195.439 145.929 195.687L146.003 196.017Z" fill="#E9EDFB"/>
<path d="M146.736 199.157C146.369 199.653 146.59 200.066 146.076 199.818L124.581 205.766C124.214 206.179 123.848 205.932 123.994 205.436L123.921 205.105C123.628 204.775 123.848 204.362 124.214 204.197L145.709 198.248C146.149 198.331 146.149 198.578 146.663 198.826L146.736 199.157Z" fill="#E9EDFB"/>
<path d="M147.396 202.379C147.03 202.875 147.25 203.37 146.736 203.04L125.242 208.989C124.875 209.402 124.508 209.154 124.655 208.658L124.581 208.328C124.288 207.997 124.508 207.667 124.875 207.419L146.369 201.47C146.81 201.553 146.81 201.801 147.323 202.048L147.396 202.379Z" fill="#E9EDFB"/>
<path d="M148.057 205.519C147.69 206.014 147.91 206.593 147.543 207.088L126.049 213.037C125.535 212.706 125.168 212.376 125.242 211.798L125.168 211.467C125.022 211.385 124.948 211.054 125.022 210.806C125.168 210.724 125.242 210.558 125.462 210.641L147.03 204.692C147.397 204.444 147.47 204.94 147.983 205.188L148.057 205.519Z" fill="#E9EDFB"/>
<path d="M136.979 211.963C137.053 212.376 137.126 212.541 136.759 212.624L126.782 215.35C126.342 215.433 126.122 215.35 126.049 214.937L125.975 214.607C125.902 214.194 126.122 213.78 126.489 213.698L136.392 210.971C136.833 210.889 136.833 211.219 136.906 211.632L136.979 211.963Z" fill="#E9EDFB"/>
<path d="M93.3297 210.641C93.6965 210.971 93.6231 211.302 93.1096 211.137L71.5416 217.085C71.3215 217.416 70.9547 217.416 70.7346 217.25C70.6613 217.168 70.6613 217.085 70.5146 217.003L70.4412 216.672C70.5146 216.176 70.7347 215.763 71.1748 215.515L92.6695 209.567C93.1096 209.649 93.3297 209.897 93.183 210.393L93.3297 210.641Z" fill="#E9EDFB"/>
<path d="M93.99 213.78C94.3568 214.111 94.2834 214.524 93.8433 214.359L72.2752 220.307C71.9084 220.803 71.4682 220.555 71.2482 220.06L71.1748 219.729C71.1748 219.316 71.5416 218.903 71.9084 218.655L93.4031 212.706C93.8433 212.789 94.0633 212.954 93.8433 213.45L93.99 213.78Z" fill="#E9EDFB"/>
<path d="M94.7236 217.003C95.0904 217.333 95.0904 217.829 94.5769 217.581L73.0088 223.53C72.642 224.025 72.2019 223.777 71.9818 223.282L71.9084 222.951C71.9084 222.538 72.2752 222.208 72.642 221.877L94.1367 215.929C94.5769 216.011 94.797 216.176 94.5769 216.672L94.7236 217.003Z" fill="#E9EDFB"/>
<path d="M88.708 220.886L94.8702 219.151C95.237 218.903 95.5305 219.316 95.3104 219.812L95.3838 220.142C95.7506 220.473 95.7506 221.051 95.3838 221.547L73.8158 227.495C73.3023 227.33 72.9354 226.917 72.5686 226.421L72.4953 226.091C72.4953 225.595 72.7887 225.182 73.2289 225.099L88.708 220.886Z" fill="#E9EDFB"/>
<path d="M85.4068 226.256C85.4802 226.669 85.3335 226.917 84.8933 227L74.1826 229.974C73.7424 230.057 73.3756 230.057 73.3022 229.643L73.2289 229.313C73.2289 228.9 73.5223 228.487 73.8891 228.404L84.5998 225.43C84.9666 225.347 85.3334 225.595 85.4068 225.926C85.4068 225.926 85.4068 225.926 85.4068 226.008V226.256Z" fill="#E9EDFB"/>
<g filter="url(#filter0_d)">
<path d="M619.898 174.541L618.65 242.289C618.65 242.289 606.913 237.084 600.677 238.571L619.898 174.541Z" fill="url(#paint5_linear)"/>
<path d="M619.898 174.541L600.677 238.571C600.677 238.571 565.464 225.517 537 224.939L557.394 161.818L619.898 174.541Z" fill="#FCFCFC"/>
<path d="M578.595 200.566L587.252 202.549L589.966 194.204L581.383 192.304L578.595 200.566Z" fill="#3F8093"/>
<path d="M564.804 197.179L573.534 199.244L576.175 190.817L567.665 188.999L564.804 197.179Z" fill="#3F8093"/>
<path d="M551.746 194.535L560.402 196.6L563.116 188.173L554.607 186.356L551.746 194.535Z" fill="#3F8093"/>
<path d="M548.077 205.854L556.807 207.919L559.448 199.492L550.939 197.674L548.077 205.854Z" fill="#3F8093"/>
<path d="M574.854 211.307L583.511 213.372L586.225 204.945L577.715 203.127L574.854 211.307Z" fill="#3F8093"/>
<path d="M588.279 214.611L596.936 216.677L599.65 208.25L591.14 206.432L588.279 214.611Z" fill="#3F8093"/>
<path d="M584.171 226.261L592.828 228.326L595.542 219.899L586.959 218.081L584.171 226.261Z" fill="#3F8093"/>
<path d="M570.819 223.286L579.476 225.269L582.19 216.925L573.607 215.107L570.819 223.286Z" fill="#3F8093"/>
<path d="M557.027 220.395L565.684 222.378L568.325 213.95L559.815 212.133L557.027 220.395Z" fill="#3F8093"/>
<path d="M561.209 208.498L569.866 210.563L572.507 202.136L563.997 200.318L561.209 208.498Z" fill="url(#paint6_linear)"/>
<path d="M619.898 174.541L614.469 192.717L551.672 179.498L557.468 161.9L619.898 174.541Z" fill="url(#paint7_linear)"/>
<path d="M603.465 166.775L598.696 165.701L596.862 173.797L601.557 174.789L603.465 166.775Z" fill="url(#paint8_linear)"/>
<path d="M573.607 160.991L569.499 160L567.738 167.601L571.846 168.427L573.607 160.991Z" fill="url(#paint9_linear)"/>
</g>
<path d="M574.152 108.483C580.31 108.483 585.303 104.531 585.303 99.6553C585.303 94.7798 580.31 90.8273 574.152 90.8273C567.993 90.8273 563 94.7798 563 99.6553C563 104.531 567.993 108.483 574.152 108.483Z" fill="url(#paint10_linear)"/>
<path d="M574.066 106.853C579.088 106.853 583.159 103.631 583.159 99.6553C583.159 95.6798 579.088 92.4571 574.066 92.4571C569.044 92.4571 564.973 95.6798 564.973 99.6553C564.973 103.631 569.044 106.853 574.066 106.853Z" stroke="url(#paint11_linear)" stroke-miterlimit="10"/>
<path d="M575.467 103.376C575.545 102.918 575.448 102.514 575.175 102.165C574.906 101.816 574.409 101.474 573.683 101.137C572.667 100.698 571.957 100.193 571.553 99.6218C571.154 99.046 571.024 98.3568 571.161 97.554C571.3 96.7363 571.654 96.0913 572.221 95.6189C572.793 95.1471 573.508 94.9062 574.365 94.8964L574.645 93.2585L575.769 93.3788L575.488 95.0242C576.313 95.2293 576.909 95.6511 577.277 96.2895C577.649 96.9285 577.748 97.759 577.573 98.7811L576.185 98.6326C576.305 97.9295 576.232 97.3531 575.966 96.9032C575.699 96.4532 575.28 96.1976 574.706 96.1362C574.108 96.0722 573.624 96.1777 573.254 96.453C572.885 96.7232 572.654 97.1325 572.56 97.681C572.473 98.1896 572.57 98.6137 572.85 98.9534C573.136 99.2886 573.64 99.6218 574.362 99.9529C575.089 100.28 575.641 100.615 576.018 100.96C576.4 101.301 576.658 101.679 576.792 102.094C576.931 102.51 576.955 102.982 576.865 103.511C576.721 104.354 576.349 105.004 575.748 105.463C575.152 105.922 574.386 106.15 573.45 106.146L573.206 107.574L572.089 107.455L572.333 106.026C571.412 105.841 570.734 105.434 570.299 104.803C569.87 104.168 569.739 103.357 569.908 102.37L571.304 102.52C571.185 103.213 571.278 103.766 571.581 104.179C571.884 104.592 572.373 104.835 573.047 104.907C573.706 104.978 574.251 104.876 574.681 104.602C575.112 104.329 575.374 103.92 575.467 103.376Z" fill="#4D54C2"/>
<path d="M606.151 81.868C610.168 81.868 613.424 79.4351 613.424 76.434C613.424 73.4329 610.168 71 606.151 71C602.135 71 598.879 73.4329 598.879 76.434C598.879 79.4351 602.135 81.868 606.151 81.868Z" fill="url(#paint12_linear)"/>
<path d="M606.152 80.857C609.421 80.857 612.071 78.8768 612.071 76.434C612.071 73.9912 609.421 72.011 606.152 72.011C602.882 72.011 600.232 73.9912 600.232 76.434C600.232 78.8768 602.882 80.857 606.152 80.857Z" stroke="url(#paint13_linear)" stroke-miterlimit="10"/>
<path d="M607.586 79.2607C607.641 78.9593 607.579 78.6946 607.401 78.4664C607.226 78.2386 606.901 78.0156 606.424 77.7973C605.757 77.5131 605.292 77.1842 605.029 76.8107C604.77 76.4343 604.688 75.9824 604.784 75.4549C604.881 74.9177 605.118 74.4929 605.495 74.1808C605.875 73.8689 606.348 73.7082 606.913 73.6985L607.108 72.6224L607.848 72.6972L607.652 73.7782C608.195 73.9098 608.586 74.1844 608.824 74.6021C609.065 75.0202 609.125 75.565 609.003 76.2365L608.089 76.1442C608.173 75.6823 608.128 75.3041 607.956 75.0098C607.783 74.7155 607.508 74.5492 607.13 74.5111C606.736 74.4713 606.416 74.5424 606.171 74.7244C605.926 74.9031 605.771 75.1727 605.706 75.533C605.645 75.8672 605.706 76.1452 605.889 76.3672C606.075 76.5861 606.405 76.803 606.879 77.0176C607.357 77.2294 607.718 77.4477 607.964 77.6727C608.214 77.8948 608.382 78.1419 608.468 78.4141C608.557 78.6866 608.57 78.9965 608.507 79.3438C608.407 79.8974 608.157 80.3259 607.758 80.6292C607.363 80.9328 606.856 81.0851 606.239 81.0861L606.069 82.0247L605.334 81.9504L605.503 81.0118C604.897 80.8939 604.453 80.6288 604.17 80.2166C603.891 79.8014 603.81 79.2695 603.928 78.6209L604.847 78.7138C604.764 79.1691 604.822 79.5319 605.019 79.802C605.216 80.0721 605.537 80.2296 605.981 80.2745C606.415 80.3183 606.775 80.2496 607.06 80.0683C607.346 79.887 607.521 79.6178 607.586 79.2607Z" fill="#4D54C2"/>
<path d="M607.376 106.934C610.463 106.934 612.965 104.873 612.965 102.329C612.965 99.7857 610.463 97.7238 607.376 97.7238C604.29 97.7238 601.788 99.7857 601.788 102.329C601.788 104.873 604.29 106.934 607.376 106.934Z" fill="url(#paint14_linear)"/>
<path d="M607.376 106.104C609.906 106.104 611.957 104.414 611.957 102.329C611.957 100.244 609.906 98.5543 607.376 98.5543C604.846 98.5543 602.796 100.244 602.796 102.329C602.796 104.414 604.846 106.104 607.376 106.104Z" stroke="url(#paint15_linear)" stroke-miterlimit="10"/>
<path d="M608.294 104.319C608.33 104.103 608.283 103.912 608.153 103.747C608.026 103.582 607.791 103.419 607.448 103.259C606.969 103.05 606.634 102.81 606.442 102.54C606.252 102.268 606.189 101.942 606.251 101.564C606.314 101.178 606.479 100.874 606.744 100.653C607.012 100.431 607.347 100.319 607.75 100.316L607.877 99.5437L608.406 99.6027L608.279 100.378C608.668 100.477 608.95 100.677 609.124 100.979C609.301 101.281 609.35 101.673 609.271 102.155L608.618 102.082C608.672 101.751 608.636 101.479 608.51 101.266C608.383 101.053 608.185 100.932 607.915 100.902C607.633 100.87 607.406 100.919 607.233 101.048C607.06 101.175 606.952 101.368 606.91 101.626C606.87 101.866 606.917 102.066 607.05 102.227C607.185 102.386 607.423 102.544 607.764 102.702C608.107 102.857 608.368 103.017 608.546 103.18C608.727 103.342 608.85 103.521 608.914 103.717C608.98 103.913 608.993 104.136 608.952 104.385C608.887 104.783 608.714 105.089 608.433 105.304C608.154 105.52 607.794 105.626 607.354 105.622L607.243 106.296L606.717 106.237L606.828 105.564C606.394 105.474 606.074 105.281 605.867 104.982C605.663 104.682 605.6 104.299 605.676 103.834L606.333 103.907C606.279 104.234 606.325 104.495 606.469 104.69C606.612 104.886 606.843 105.001 607.16 105.037C607.47 105.071 607.727 105.024 607.928 104.896C608.13 104.768 608.252 104.576 608.294 104.319Z" fill="#4D54C2"/>
</g>
<defs>
<filter id="filter0_d" x="533" y="158" width="90.8976" height="90.289" filterUnits="userSpaceOnUse" color-interpolation-filters="sRGB">
<feFlood flood-opacity="0" result="BackgroundImageFix"/>
<feColorMatrix in="SourceAlpha" type="matrix" values="0 0 0 0 0 0 0 0 0 0 0 0 0 0 0 0 0 0 127 0"/>
<feOffset dy="2"/>
<feGaussianBlur stdDeviation="2"/>
<feColorMatrix type="matrix" values="0 0 0 0 0 0 0 0 0 0 0 0 0 0 0 0 0 0 0.25 0"/>
<feBlend mode="normal" in2="BackgroundImageFix" result="effect1_dropShadow"/>
<feBlend mode="normal" in="SourceGraphic" in2="effect1_dropShadow" result="shape"/>
</filter>
<linearGradient id="paint0_linear" x1="60.2952" y1="170.412" x2="85.5316" y2="164.898" gradientUnits="userSpaceOnUse">
<stop stop-color="#39A96B"/>
<stop offset="1" stop-color="#3F8093"/>
</linearGradient>
<linearGradient id="paint1_linear" x1="63.9756" y1="187.259" x2="140.406" y2="170.561" gradientUnits="userSpaceOnUse">
<stop stop-color="#37CD58"/>
<stop offset="1" stop-color="#4C4CBF"/>
</linearGradient>
<linearGradient id="paint2_linear" x1="68.1813" y1="206.51" x2="91.9756" y2="201.311" gradientUnits="userSpaceOnUse">
<stop stop-color="#37CD58"/>
<stop offset="1" stop-color="#58CAEA"/>
</linearGradient>
<linearGradient id="paint3_linear" x1="93.8252" y1="199.404" x2="117.619" y2="194.206" gradientUnits="userSpaceOnUse">
<stop stop-color="#37CD58"/>
<stop offset="1" stop-color="#4C4CBF"/>
</linearGradient>
<linearGradient id="paint4_linear" x1="120.182" y1="192.103" x2="143.976" y2="186.905" gradientUnits="userSpaceOnUse">
<stop stop-color="#37CD58"/>
<stop offset="1" stop-color="#4C4CBF"/>
</linearGradient>
<linearGradient id="paint5_linear" x1="624.037" y1="209.354" x2="605.948" y2="206.408" gradientUnits="userSpaceOnUse">
<stop stop-color="#58CAEA"/>
<stop offset="1" stop-color="#4C4CBF"/>
</linearGradient>
<linearGradient id="paint6_linear" x1="571.743" y1="206.391" x2="561.861" y2="204.59" gradientUnits="userSpaceOnUse">
<stop stop-color="#58CAEA"/>
<stop offset="1" stop-color="#4C4CBF"/>
</linearGradient>
<linearGradient id="paint7_linear" x1="618.402" y1="183.871" x2="552.725" y2="173.175" gradientUnits="userSpaceOnUse">
<stop stop-color="#07B900"/>
<stop offset="1" stop-color="#58CAEA"/>
</linearGradient>
<linearGradient id="paint8_linear" x1="602.815" y1="170.77" x2="597.477" y2="169.901" gradientUnits="userSpaceOnUse">
<stop stop-color="#4D54C2"/>
<stop offset="1" stop-color="#4C4CBF"/>
</linearGradient>
<linearGradient id="paint9_linear" x1="572.995" y1="164.703" x2="568.381" y2="163.952" gradientUnits="userSpaceOnUse">
<stop stop-color="#188977"/>
<stop offset="1" stop-color="#4C4CBF"/>
</linearGradient>
<linearGradient id="paint10_linear" x1="556.839" y1="115.076" x2="575.799" y2="88.0768" gradientUnits="userSpaceOnUse">
<stop stop-color="#4C4FC0"/>
<stop offset="1" stop-color="#58CAEA"/>
</linearGradient>
<linearGradient id="paint11_linear" x1="564.568" y1="98.6436" x2="583.317" y2="101.846" gradientUnits="userSpaceOnUse">
<stop stop-color="#4D54C2"/>
<stop offset="1" stop-color="#4C4CBF"/>
</linearGradient>
<linearGradient id="paint12_linear" x1="594.97" y1="85.8793" x2="606.341" y2="68.7205" gradientUnits="userSpaceOnUse">
<stop stop-color="#4C4FC0"/>
<stop offset="1" stop-color="#58CAEA"/>
</linearGradient>
<linearGradient id="paint13_linear" x1="599.864" y1="75.8092" x2="612.274" y2="78.0551" gradientUnits="userSpaceOnUse">
<stop stop-color="#4D54C2"/>
<stop offset="1" stop-color="#4C4CBF"/>
</linearGradient>
<linearGradient id="paint14_linear" x1="598.698" y1="110.413" x2="608.76" y2="96.6516" gradientUnits="userSpaceOnUse">
<stop stop-color="#4C4FC0"/>
<stop offset="1" stop-color="#58CAEA"/>
</linearGradient>
<linearGradient id="paint15_linear" x1="602.332" y1="102.327" x2="612.417" y2="102.327" gradientUnits="userSpaceOnUse">
<stop stop-color="#4D54C2"/>
<stop offset="1" stop-color="#4C4CBF"/>
</linearGradient>
<clipPath id="clip0">
<rect width="716" height="569" fill="white"/>
</clipPath>
</defs>
</svg>
